<?xml version="1.0" encoding="UTF-8"?>
<svg id="Layer_2" data-name="Layer 2" xmlns="http://www.w3.org/2000/svg" xmlns:xlink="http://www.w3.org/1999/xlink" viewBox="0 0 564.36 303.69">
  <defs>
    <style>
      .cls-1 {
        fill: url(#linear-gradient-2);
      }

      .cls-2 {
        fill: url(#linear-gradient-4);
      }

      .cls-3 {
        fill: url(#linear-gradient-3);
      }

      .cls-4 {
        fill: #082027;
      }

      .cls-5 {
        fill: url(#linear-gradient);
      }
    </style>
    <linearGradient id="linear-gradient" x1="564.36" y1="151.85" x2="0" y2="151.85" gradientUnits="userSpaceOnUse">
      <stop offset="0" stop-color="#ff9819"/>
      <stop offset="1" stop-color="#e84508"/>
    </linearGradient>
    <linearGradient id="linear-gradient-2" x1="282.48" y1="519.67" x2="282.34" y2="91.84" gradientUnits="userSpaceOnUse">
      <stop offset=".09" stop-color="#fff"/>
      <stop offset=".17" stop-color="#fff" stop-opacity=".99"/>
      <stop offset=".23" stop-color="#fff" stop-opacity=".95"/>
      <stop offset=".28" stop-color="#fff" stop-opacity=".9"/>
      <stop offset=".32" stop-color="#fff" stop-opacity=".81"/>
      <stop offset=".32" stop-color="#fff" stop-opacity=".8"/>
      <stop offset=".33" stop-color="#fff" stop-opacity=".81"/>
      <stop offset=".4" stop-color="#fff" stop-opacity=".9"/>
      <stop offset=".47" stop-color="#fff" stop-opacity=".95"/>
      <stop offset=".53" stop-color="#fff" stop-opacity=".96"/>
      <stop offset=".53" stop-color="#fff" stop-opacity=".96"/>
      <stop offset=".53" stop-color="#fff" stop-opacity=".84"/>
      <stop offset=".54" stop-color="#fff" stop-opacity=".73"/>
      <stop offset=".54" stop-color="#fff" stop-opacity=".65"/>
      <stop offset=".54" stop-color="#fff" stop-opacity=".58"/>
      <stop offset=".54" stop-color="#fff" stop-opacity=".53"/>
      <stop offset=".55" stop-color="#fff" stop-opacity=".51"/>
      <stop offset=".56" stop-color="#fff" stop-opacity=".5"/>
      <stop offset=".57" stop-color="#fff" stop-opacity=".55"/>
      <stop offset=".58" stop-color="#fff" stop-opacity=".67"/>
      <stop offset=".61" stop-color="#fff" stop-opacity=".87"/>
      <stop offset=".61" stop-color="#fff" stop-opacity=".95"/>
      <stop offset=".68" stop-color="#fdfdfd" stop-opacity=".96"/>
      <stop offset=".69" stop-color="#fcfcfc" stop-opacity=".98"/>
      <stop offset=".9" stop-color="#f2f2f2"/>
    </linearGradient>
    <linearGradient id="linear-gradient-3" x1="274.42" y1="-74.09" x2="275.68" y2="316.06" gradientUnits="userSpaceOnUse">
      <stop offset=".09" stop-color="#fff"/>
      <stop offset=".36" stop-color="#fff" stop-opacity=".99"/>
      <stop offset=".49" stop-color="#fff" stop-opacity=".96"/>
      <stop offset=".5" stop-color="#fff" stop-opacity=".95"/>
      <stop offset=".5" stop-color="#fff" stop-opacity=".88"/>
      <stop offset=".51" stop-color="#fff" stop-opacity=".83"/>
      <stop offset=".53" stop-color="#fff" stop-opacity=".81"/>
      <stop offset=".57" stop-color="#fff" stop-opacity=".8"/>
      <stop offset=".61" stop-color="#fff" stop-opacity=".85"/>
      <stop offset=".67" stop-color="#fff" stop-opacity=".95"/>
      <stop offset=".69" stop-color="#fdfdfd" stop-opacity=".96"/>
      <stop offset=".69" stop-color="#fcfcfc" stop-opacity=".98"/>
      <stop offset=".9" stop-color="#f2f2f2"/>
    </linearGradient>
    <linearGradient id="linear-gradient-4" x1="376.45" y1="139.66" x2="275.47" y2="139.66" xlink:href="#linear-gradient"/>
  </defs>
  <g id="Layer_1-2" data-name="Layer 1">
    <path class="cls-5" d="M200.48,303.69c-23.69,0-42.42-5.41-55.67-16.08-.23-.18-.46-.39-.7-.6l-2.28-1.94-1.87,1.54c-2.31,1.9-4.79,3.58-7.38,5.02-5.42,3-11.81,5.47-18.99,7.34-6.66,1.74-13.5,2.98-20.34,3.69-6.58.68-13.53,1.03-20.67,1.03-18.57,0-35.91-.47-51.55-1.39-6.93-.33-13.14-3.89-16.98-9.77-2.32-3.55-3.54-7.81-3.54-12.34,0-19.81.46-40.31,1.34-60.91.89-20.75,1.99-38.51,3.26-52.78.05-.59.09-1.2.12-1.8.19-3.27.44-7.72,3.57-11.24,1.08-1.49,2.26-2.78,3.52-3.87l-1.47-.88c-6.24-3.75-9.88-10.3-10-17.97C.4,117.78.12,106.7,0,97.73v-.24c0-8.11,3.94-15.01,10.55-18.51l2.86-1.52-1.82-2.68c-1.04-1.53-2-3.16-2.86-4.87-2.89-5.74-4.36-12.11-4.36-18.95,0-17.02,7.49-30.48,21.65-38.92C37.91,4.98,53.55,1.54,73.86,1.54c7.92,0,16.42.54,25.27,1.61,9.04,1.09,17.17,2.66,24.17,4.65l.8.23.76.3c7.91,3.17,13,10,13.64,18.27l.02.31c.08,1.28.3,4.45.95,12.66l.59,5.06,3.97-2.74c12.41-8.57,27.65-12.91,45.3-12.91,14.06,0,25.77,1.88,35.79,5.74l1.47.57,1.27-.92c2.84-2.05,6.06-3.34,9.58-3.84,3.91-.58,9.79-.85,18.49-.85,9.22,0,15.73.26,19.9.8,3.34.39,6.46,1.46,9.19,3.18l1.45.91,1.5-.83c5.5-3.04,11.65-4.58,18.29-4.58,13.81,0,22.68,5.43,27.68,9.98l2.09,1.95,1.89-1.21c11.33-7.23,24.9-10.89,40.34-10.89,14.39,0,27.18,3.19,38.01,9.49l4.08,2.37.28-4.71c.35-5.88.71-11.34,1.08-16.21l.06-.63.04-.3c.68-5.01,2.99-9.41,6.69-12.75,3.28-2.96,7.4-4.84,11.91-5.43l.26-.03c4.51-.53,10.4-.79,18-.79,9.87,0,16.64.19,20.68.59l.38.04c1.75.21,3.54.67,5.24,1.34l1.02.4,1.03-.37c1.54-.56,3.17-.96,4.82-1.17l.26-.03c4.51-.53,10.4-.79,18-.79,9.87,0,16.64.19,20.68.59l.38.04c5.33.64,10.13,3.19,13.59,7.21,3.76,4.37,5.48,10.01,4.84,15.86-3.16,30.21-3.94,67.99-2.32,112.25l.04.74c.15,2.67-.1,5.32-.73,7.87l2.89.42.24.06c4.33,1.01,8.72,3.72,11.19,6.92,3.86,5,3.6,11.18,3.4,15.68l-.03.73c-.94,25.9-3.69,50.64-8.17,73.52l-.05.24c-.25,1.14-.59,2.31-1.03,3.43l-.54,1.39.82,1.25c3.74,5.67,5.64,12.45,5.64,20.13,0,10.58-3.66,19.22-10.89,25.67-6.61,5.9-15.26,9.01-25,9.01-6.64,0-12.72-1.41-18.07-4.19l-1.49-.78-1.63,1.05c-2.89,1.86-6.22,2.96-9.64,3.18l-.32.02c-9.36.48-27.49.71-55.51.71s-45.87-.23-53.85-.72l-.31-.02c-1.26-.09-2.56-.3-3.78-.61l-.7-.18-.71.18c-1.21.31-2.37.51-3.53.6l-.39.03c-9.39.48-27.52.71-55.53.71s-45.87-.23-53.85-.72l-.3-.02c-5.19-.39-9.83-2.46-13.46-5.98-.52-.51-1.07-1.11-1.66-1.83l-1.51-1.85-2.11,1.14c-12.21,6.6-27.75,9.95-46.17,9.95Z"/>
    <path class="cls-4" d="M200.48,297.82c-22.32,0-39.81-4.97-51.99-14.78-.16-.13-.32-.27-.48-.41l-.52-.45-5.59-4.77-5.68,4.67c-2.03,1.67-4.21,3.15-6.49,4.41-4.99,2.76-10.92,5.05-17.62,6.8-6.38,1.67-12.93,2.85-19.46,3.53-6.38.66-13.13,1-20.07,1-18.45,0-35.68-.46-51.2-1.38-5.11-.25-9.59-2.8-12.4-7.11-1.76-2.7-2.58-5.9-2.58-9.13,0-19.72.46-40.12,1.34-60.66.89-20.68,1.98-38.34,3.25-52.51.32-3.5.03-7.35,2.37-9.81.01-.01.03-.04.06-.07,1.33-1.91,3-3.57,5.04-4.7l5.23-2.9-9.78-5.88c-4.46-2.68-7.07-7.43-7.15-13.03v-.18c-.46-12.88-.74-23.92-.86-32.82v-.19c0-5.92,2.7-10.79,7.42-13.28l8.66-4.58-5.51-8.11c-.9-1.32-1.73-2.74-2.47-4.21-2.48-4.91-3.73-10.4-3.73-16.3,0-14.83,6.5-26.55,18.79-33.87,10.94-6.52,25.61-9.69,44.83-9.69,7.67,0,15.94.53,24.57,1.57,8.74,1.06,16.57,2.56,23.27,4.47l.5.14.48.19c5.86,2.35,9.49,7.18,9.96,13.26l.02.26c.1,1.78.44,6.21.96,12.72v.16s1.74,14.82,1.74,14.82l12.01-8.29c11.41-7.88,25.53-11.87,41.96-11.87,13.33,0,24.34,1.75,33.68,5.34l4.44,1.71,3.86-2.78c2.06-1.49,4.41-2.43,6.97-2.79,3.62-.54,9.38-.79,17.66-.79,8.96,0,15.22.25,19.15.75,2.57.3,4.83,1.08,6.81,2.33l4.38,2.76,4.53-2.5c4.62-2.55,9.82-3.84,15.45-3.84,11.93,0,19.49,4.6,23.73,8.45l5.36,5.01,5.74-3.66c10.37-6.62,22.88-9.97,37.18-9.97,13.34,0,25.13,2.93,35.06,8.7l12.34,7.17.84-14.25c.34-5.87.71-11.29,1.08-16.11l.02-.3.04-.3c.5-3.65,2.11-6.74,4.8-9.17,2.39-2.16,5.41-3.53,8.73-3.96l.19-.02c4.26-.5,9.94-.75,17.31-.75,9.68,0,16.25.18,20.1.56l.31.03c1.18.14,2.48.47,3.75.97l3.08,1.2,3.11-1.13c1.15-.42,2.35-.71,3.57-.87l.19-.02c4.26-.5,9.94-.75,17.31-.75,9.68,0,16.25.18,20.1.56l.31.03c3.78.45,7.28,2.3,9.78,5.2,2.73,3.17,3.92,7.11,3.45,11.39-3.19,30.53-3.98,68.57-2.35,113.11,0,.25.02.53.04.84.23,4.13-.78,8.24-2.89,11.79l-.28.48,10.1,1.48c2.83.66,6.11,2.51,7.87,4.78,2.71,3.51,2.32,8.49,2.15,12.58-.93,25.62-3.64,50.05-8.07,72.63l-.02.1c-.19.88-.45,1.74-.77,2.58l-1.63,4.22,2.49,3.77c3.1,4.7,4.67,10.38,4.67,16.9,0,8.84-3,16-8.92,21.29-5.51,4.92-12.81,7.52-21.08,7.52-5.68,0-10.85-1.19-15.36-3.53l-4.52-2.35-4.49,2.89c-2.05,1.32-4.41,2.1-6.84,2.26l-.34.02c-9.17.47-27.2.7-55.11.7s-45.63-.23-53.5-.7l-.24-.02c-.89-.07-1.85-.22-2.77-.45l-2.14-.53-2.14.54c-.91.23-1.75.37-2.57.44l-.34.02c-9.17.47-27.2.7-55.11.7s-45.63-.23-53.5-.7l-.24-.02c-3.74-.29-7.16-1.79-9.78-4.34-.36-.35-.75-.78-1.18-1.31l-4.59-5.64-6.39,3.46c-11.34,6.13-25.93,9.24-43.38,9.24Z"/>
    <path class="cls-1" d="M138.8,251.06c0,4.71-1.31,8.93-3.95,12.69-2.63,3.76-6.1,6.82-10.4,9.2-4.3,2.37-9.41,4.34-15.34,5.88-5.93,1.56-11.93,2.64-18.01,3.27-6.08.63-12.44.94-19.08.94-7.15,0-14.08-.06-20.78-.21-10.6-.21-20.64-.61-30.12-1.16-1.56-.06-2.84-.65-3.87-1.8-1.04-1.15-1.56-2.5-1.56-4.04,0-15.82.28-31.91.85-48.27.14-4.15.3-8.33.48-12.51.89-20.69,1.96-38.08,3.22-52.18.11-1.26.57-2.31,1.37-3.14.8-.83,1.87-1.27,3.19-1.33,10.94-.57,30.31-.86,58.12-.86,33.24,0,49.86,8.18,49.86,24.51,0,3.67-.95,7.15-2.85,10.43-1.58,2.75-3.85,5.36-6.77,7.84-6.42,5.41-15.37,9.24-26.83,11.48-1.72.63-2.57,1.45-2.57,2.45s.85,1.77,2.57,2.29c13.76,2.57,24.27,7.08,31.56,13.49,6.11,5.4,9.65,11.2,10.61,17.44.2,1.19.3,2.4.3,3.62ZM61.26,204.56c0,1.49.47,2.56,1.42,3.19.94.63,2.19.8,3.73.52,7.75-1.1,13.34-2.87,16.81-5.34,3.47-2.46,5.2-5.27,5.2-8.42,0-5.73-4.93-8.6-14.79-8.6-3.61,0-6.08.06-7.4.17-3.32,0-4.98,1.46-4.98,4.39-.17,4.69-.17,9.4,0,14.09ZM61.26,244.53c0,3.73,1.95,5.6,5.84,5.6,2,.11,5.47.17,10.4.17s8.5-1.03,11.22-3.05c2.73-2.04,4.09-4.89,4.09-8.56s-2.3-7.13-6.88-9.88c-4.58-2.75-11.03-4.67-19.34-5.76-1.66-.35-2.96-.11-3.9.73-.95.83-1.42,2.1-1.42,3.82-.17,5.68-.17,11.33,0,16.94ZM254.59,159.85c-.86-.8-1.89-1.29-3.1-1.46-4.36-.46-10.23-.69-17.62-.69-8.6,0-15.07.23-19.43.69-1.49.17-2.71.8-3.65,1.89-.95,1.09-1.31,2.35-1.08,3.78,3.96,23.78,5.85,43.67,5.67,59.66-.12,6.59-1.4,11.91-3.87,15.95-2.47,4.04-6.22,6.06-11.26,6.06s-8.81-2.01-11.3-6.02c-2.49-4.01-3.8-9.34-3.91-15.99-.17-17.94,1.66-37.83,5.5-59.66.34-1.43.01-2.69-.99-3.78-1-1.09-2.25-1.72-3.74-1.89-4.18-.46-10.49-.69-18.91-.69-7.74,0-13.7.23-17.88.69-1.26.17-2.34.66-3.22,1.46-.89.8-1.42,1.81-1.59,3.01-1.49,9.97-2.77,21.26-3.83,33.87-1.06,12.61-1.59,23.9-1.59,33.87,0,18.17,5.22,31.45,15.65,39.85,10.43,8.4,25.71,12.59,45.82,12.59s35.2-4.2,45.61-12.59c10.4-8.4,15.6-21.68,15.6-39.85.17-18.4-1.58-40.98-5.24-67.75-.23-1.2-.77-2.21-1.63-3.01ZM374.24,228.12c-1.95-.63-3.73.14-5.33,2.32-4.47,5.96-9.26,10.33-14.36,13.11-5.1,2.78-11.41,4.17-18.91,4.17-3.9,0-6.92-.47-9.07-1.42-2.15-.95-3.17-2.22-3.05-3.83.11-1.6,1.35-3.32,3.7-5.16,6.3-6.3,13.67-14.2,22.09-23.69,8.43-9.48,15.13-17.38,20.12-23.69,4.07-4.07,6.02-8.77,5.85-14.1-.57-8.31-.86-12.52-.86-12.64-.17-1.32-.72-2.44-1.63-3.35-.92-.92-2.03-1.4-3.35-1.46-7.17-.46-23.53-.69-49.09-.69-24.07,0-40.26.23-48.57.69-1.38.12-2.54.63-3.48,1.55-.95.92-1.45,2.06-1.5,3.44-.63,9.29-1.15,22.01-1.55,38.17-.12,2.29.7,3.8,2.45,4.51,1.75.72,3.34.16,4.77-1.68,7.39-8.6,18.14-12.89,32.24-12.89,5.39,0,8.94.93,10.66,2.79,1.72,1.86.74,4.34-2.92,7.44-21.61,22.41-36.11,38.03-43.5,46.85-2.41,2.58-4.17,4.86-5.29,6.83-1.12,1.98-1.71,4.34-1.76,7.09l-.34,14.1c0,1.43.47,2.61,1.42,3.53.95.92,2.16,1.43,3.65,1.55,7.62.46,25.3.69,53.04.69s45.82-.23,54.76-.69c1.38-.11,2.49-.63,3.35-1.55.86-.92,1.26-2.03,1.2-3.35l-1.63-43.67c-.12-2.69-1.15-4.35-3.1-4.99ZM493.38,228.12c-1.95-.63-3.73.14-5.33,2.32-4.47,5.96-9.26,10.33-14.36,13.11-5.1,2.78-11.41,4.17-18.91,4.17-3.9,0-6.92-.47-9.07-1.42-2.15-.95-3.17-2.22-3.05-3.83.11-1.6,1.35-3.32,3.7-5.16,6.3-6.3,13.67-14.2,22.09-23.69,8.43-9.48,15.13-17.38,20.12-23.69,4.07-4.07,6.02-8.77,5.85-14.1-.57-8.31-.86-12.52-.86-12.64-.17-1.32-.72-2.44-1.63-3.35-.92-.92-2.03-1.4-3.35-1.46-7.17-.46-23.53-.69-49.09-.69-24.07,0-40.26.23-48.57.69-1.38.12-2.54.63-3.48,1.55-.95.92-1.45,2.06-1.5,3.44-.63,9.29-1.15,22.01-1.55,38.17-.12,2.29.7,3.8,2.45,4.51,1.75.72,3.34.16,4.77-1.68,7.39-8.6,18.14-12.89,32.24-12.89,5.39,0,8.94.93,10.66,2.79,1.72,1.86.74,4.34-2.92,7.44-21.61,22.41-36.11,38.03-43.5,46.85-2.41,2.58-4.17,4.86-5.29,6.83-1.12,1.98-1.71,4.34-1.76,7.09l-.34,14.1c0,1.43.47,2.61,1.42,3.53.95.92,2.16,1.43,3.65,1.55,7.62.46,25.3.69,53.04.69s45.82-.23,54.76-.69c1.38-.11,2.49-.63,3.35-1.55.86-.92,1.26-2.03,1.2-3.35l-1.63-43.67c-.12-2.69-1.15-4.35-3.1-4.99ZM511.89,236.76c.83.77,1.79,1.25,2.88,1.42,7.05.34,10.8.52,11.26.52,3.78,0,7.36-.17,10.75-.52,2.35-.34,3.81-1.75,4.38-4.21,4.36-22.24,6.99-46,7.91-71.27.06-1.26-.37-2.35-1.29-3.27-.92-.92-2.06-1.43-3.44-1.55-4.36-.46-10.46-.69-18.31-.69-5.9,0-12.35.23-19.34.69-1.32.12-2.45.63-3.4,1.55-.95.92-1.42,2.01-1.42,3.27.8,19.72,3.64,43.53,8.51,71.44.17.98.67,1.85,1.5,2.62ZM525.52,248.93c-5.96,0-10.8,1.71-14.53,5.11-3.73,3.41-5.59,8.15-5.59,14.23s1.86,10.69,5.59,14.01c3.72,3.32,8.57,4.99,14.53,4.99s10.72-1.66,14.44-4.99c3.72-3.32,5.59-7.94,5.59-13.84s-1.85-10.99-5.55-14.4c-3.7-3.41-8.53-5.11-14.49-5.11Z"/>
    <path class="cls-3" d="M230.06,132.18c.11,1.26-.13,2.4-.73,3.43-.6,1.03-1.39,1.71-2.36,2.06-5.26,1.77-11.36,3.17-18.3,4.2-6.94,1.03-13.56,1.54-19.85,1.54-8.69,0-16.45-.86-23.28-2.57-6.83-1.71-12.8-4.37-17.92-7.97-5.12-3.6-9.03-8.36-11.75-14.28-2.71-5.91-4.07-12.9-4.07-20.96,0-15.83,5.29-28.53,15.86-38.11,10.57-9.57,24.46-14.36,41.67-14.36,12.52,0,22.89,1.69,31.12,5.06,1.08.52,1.94,1.36,2.57,2.53.63,1.17.89,2.39.77,3.64-.74,7.03-1.63,14.75-2.66,23.15-.23,2.17-1.1,3.54-2.62,4.11-1.51.57-2.93.09-4.24-1.46-2.74-1.6-6.25-2.97-10.5-4.11-4.26-1.14-8.25-1.72-11.96-1.72-6.52,0-11.45,1.69-14.79,5.06-3.34,3.37-5.01,8.23-5.01,14.58,0,5.03,1.87,8.9,5.62,11.62,3.74,2.71,9.05,4.07,15.9,4.07,9.95,0,19.38-3.23,28.29-9.69,1.43-1.54,2.97-2.01,4.63-1.41,1.66.6,2.51,2.01,2.57,4.24.69,15.78,1.03,24.89,1.03,27.35ZM121.58,85.41c-3.12-2.37-6.69-4.53-10.72-6.47-4.03-1.94-8.14-3.47-12.35-4.59-4.2-1.11-8.32-2.27-12.35-3.47-4.03-1.2-7.63-2.29-10.8-3.26-3.17-.97-5.72-2.21-7.63-3.73-1.92-1.51-2.87-3.21-2.87-5.1,0-2.86,1.94-5.06,5.83-6.6,3.89-1.54,8.92-2.26,15.09-2.14,5.26.12,10.72,1.06,16.37,2.83,5.66,1.77,10.75,4.17,15.26,7.2,1.49,1.6,3.1,2.03,4.84,1.29,1.74-.74,2.53-2.46,2.36-5.14-.12-3.2-.44-8.2-.99-15-.54-6.8-.87-11.17-.99-13.12-.17-2.23-1.4-3.8-3.69-4.72-6.23-1.77-13.48-3.16-21.73-4.16-8.26-1-16.05-1.5-23.36-1.5-17.2,0-30.44,2.76-39.7,8.27-9.26,5.52-13.89,13.93-13.89,25.25,0,4.34.89,8.27,2.66,11.79,1.77,3.51,4.1,6.39,6.99,8.62,2.89,2.23,6.17,4.27,9.86,6.13,3.69,1.86,7.46,3.37,11.32,4.54,3.86,1.17,7.62,2.36,11.27,3.56,3.66,1.2,6.93,2.34,9.82,3.43,2.89,1.09,5.2,2.41,6.94,3.99,1.74,1.57,2.62,3.36,2.62,5.36,0,3.14-1.46,5.63-4.37,7.46-2.92,1.83-7.26,2.74-13.03,2.74-7.49,0-14.73-1.19-21.73-3.56-7-2.37-13.22-5.93-18.65-10.67-1.6-1.72-3.34-2.26-5.23-1.63-1.89.63-2.83,2.23-2.83,4.8.11,8.92.4,19.86.86,32.84,0,2.69,1.11,4.43,3.34,5.23,7.37,2.17,16.27,3.97,26.71,5.4,10.43,1.43,19.39,2.14,26.88,2.14,18.52,0,32.85-3.13,43-9.39,10.14-6.26,15.25-15.19,15.3-26.79,0-4.69-.96-8.9-2.87-12.65-1.92-3.74-4.43-6.8-7.54-9.17ZM323.32,51.24c-4.29-3.94-9.97-5.92-17.06-5.92-13.2,0-22.03,9.95-26.49,29.84-.29,1.09-.72,1.82-1.29,2.19-.57.37-1.09.29-1.54-.26-.46-.54-.69-1.42-.69-2.62,0-6.74.77-14.15,2.31-22.2.34-1.43.07-2.7-.81-3.82-.89-1.11-2.16-1.76-3.82-1.93-3.43-.46-9.43-.69-18-.69-7.77,0-13.17.23-16.2.69-1.26.17-2.31.67-3.17,1.5-.86.83-1.32,1.84-1.37,3.04-2.29,24.18-3.52,52.81-3.69,85.91,0,1.37.43,2.52,1.29,3.43.86.91,1.94,1.46,3.26,1.63,7.2.46,13.57.69,19.12.69,9.77,0,16.23-.17,19.38-.51,1.43-.17,2.63-.81,3.6-1.93.97-1.11,1.34-2.47,1.11-4.07-1.77-11.09-2.66-21.09-2.66-30.01,0-6.4,2.04-11.63,6.13-15.69,4.09-4.06,8.79-6.09,14.1-6.09,7.03,0,13.52,2.69,19.46,8.06,1.26,1.6,2.73,2.1,4.42,1.5,1.69-.6,2.61-1.96,2.79-4.07,1.43-17.66,2.26-28.43,2.49-32.32,0-2.69-.89-4.8-2.66-6.34ZM532.68,18.49c-.89-1.03-2.04-1.63-3.47-1.8-3.49-.34-9.86-.51-19.12-.51-6.92,0-12.32.23-16.2.69-1.32.17-2.41.66-3.3,1.46-.89.8-1.41,1.83-1.59,3.09-1.09,14.18-2.03,32.17-2.83,53.97-.8,21.81-1.2,42.28-1.2,61.43,0,1.37.44,2.54,1.33,3.52.89.97,2.01,1.54,3.39,1.71,4.63.46,11.15.69,19.55.69,7.6,0,13.43-.23,17.49-.69,1.43-.17,2.57-.71,3.43-1.63.86-.91,1.26-2.11,1.2-3.6-1.66-45.27-.86-83.45,2.4-114.54.17-1.49-.19-2.74-1.07-3.77ZM429.29,95.57c.01.46.01.91.01,1.37,0,8.23-1.24,15.37-3.73,21.43-1.79,4.36-4.13,8.09-7.03,11.17-1.12,1.21-2.34,2.3-3.63,3.31-4.64,3.61-9.99,6.26-16.06,7.98-4.24,1.19-8.86,1.97-13.87,2.32h-.01c-2.16.17-4.4.25-6.7.25-6.09,0-11.68-.53-16.78-1.58-5.1-1.06-9.79-2.76-14.07-5.11-4.3-2.34-7.92-5.3-10.89-8.87-.75-.91-1.47-1.87-2.13-2.89-1.96-2.97-3.56-6.39-4.78-10.26-1.65-5.2-2.46-11.11-2.46-17.75,0-15.72,4.73-28.27,14.19-37.68,9.46-9.4,21.77-14.09,36.92-14.09s27.45,4.69,36.9,14.09c9.15,9.14,13.87,21.24,14.14,36.32ZM392.17,94.45c0-5.48-1.29-9.98-3.88-13.5-2.6-3.51-5.94-5.27-10.04-5.27s-7.44,1.76-10.03,5.27c-2.59,3.52-3.88,8.02-3.88,13.5s1.29,9.98,3.88,13.29c1.88,2.41,4.18,3.95,6.86,4.61,1,.25,2.06.37,3.17.37,3.81,0,6.95-1.43,9.46-4.27.2-.22.38-.46.58-.7,2.59-3.31,3.88-7.75,3.88-13.29ZM477.78,16.69c-3.49-.34-9.86-.51-19.12-.51-6.92,0-12.32.23-16.2.69-1.32.17-2.41.66-3.3,1.46-.89.8-1.41,1.83-1.59,3.09-1.09,14.18-2.03,32.17-2.83,53.97-.8,21.81-1.2,42.28-1.2,61.43,0,1.37.44,2.54,1.33,3.52.89.97,2.01,1.54,3.39,1.71,4.63.46,11.15.69,19.55.69,7.6,0,13.43-.23,17.49-.69,1.43-.17,2.57-.71,3.43-1.63.86-.91,1.26-2.11,1.2-3.6-1.66-45.27-.86-83.45,2.4-114.54.17-1.49-.19-2.74-1.07-3.77-.89-1.03-2.04-1.63-3.47-1.8Z"/>
    <path class="cls-4" d="M332.98,196.11c-5.12-.19-9.47-3.6-10.83-8.49-2.51-9.07-4.79-15.99-6.99-22.68-1.44-4.38-2.93-8.92-4.42-13.87l-1.5-4.55-36.33-18.95-.21-.12c-3.76-2.21-7.82-6.83-6.88-12.6.85-5.23,4.78-9.35,10.02-10.5l95.04-20.89c.96-.21,1.98-.3,3.11-.25.83.03,3.73.21,6.05,1.3,6.77,3.15,7.28,11.54,5.04,16.38l-40.74,88.29c-2.02,4.39-6.48,7.11-11.36,6.94h0Z"/>
    <path class="cls-2" d="M375.9,93.37c-.46-.21-2.31-.49-2.93-.35l-95.03,20.89c-1.13.25-2.23,1.09-2.46,2.51-.07.41.65,1.7,2.18,2.6l35.17,18.34,28.61-16.1-22.05,24.78.69,2.1c3.69,12.27,7.23,21.45,11.5,36.87.49,1.77,3.1,1.73,3.88.06l40.74-88.3c.37-.79.39-3.09-.3-3.41Z"/>
  </g>
</svg>